<svg width="178" height="44" viewBox="0 0 178 44" fill="none" xmlns="http://www.w3.org/2000/svg">
<path d="M22.0461 0.6875H22.0449C10.2582 0.6875 0.703125 10.0382 0.703125 21.5728V22.4273C0.703125 33.9618 10.2582 43.3125 22.0449 43.3125H22.0461C33.8329 43.3125 43.3879 33.9618 43.3879 22.4273V21.5728C43.3879 10.0382 33.8329 0.6875 22.0461 0.6875Z" fill="#25CFE8"/>
<path d="M32.6737 11.1851H27.8779L22.3704 19.0954H21.8135L16.5846 11.1851H11.6031L18.8123 21.8764L11.0153 32.8151H15.9349L21.6898 24.8738H22.2467L27.9398 32.8151H33.0759L25.279 21.7838L32.6737 11.1851Z" fill="white"/>
<path d="M69.84 12.8428H65.9036L61.3829 19.3356H60.9259L56.634 12.8428H52.5451L58.4625 21.6183L52.0625 30.5968H56.1006L60.8243 24.0787H61.2815L65.9544 30.5968H70.1701L63.7703 21.5422L69.84 12.8428Z" fill="#1D1D1F"/>
<path d="M96.0011 22.8443H90.2361V17.9746H87.0616V30.656H90.2361V25.761H96.0011V30.656H99.1756V17.9746H96.0011V22.8443Z" fill="#1D1D1F"/>
<path d="M77.0182 27.934C74.9865 27.934 73.5644 26.3362 73.5644 24.2819C73.5644 22.0499 74.9865 20.5788 77.0182 20.5788C79.1515 20.5788 80.5736 22.0499 80.5736 24.2819C80.5736 26.3362 79.1515 27.934 77.0182 27.934ZM80.6753 19.2598H80.5482C79.888 18.3976 78.542 17.6113 76.6372 17.6113C73.0563 17.6113 70.2882 20.5788 70.2882 24.3072C70.2882 27.9593 73.0563 30.9015 76.6372 30.9015C78.542 30.9015 79.888 30.1152 80.5482 29.253H80.6753L80.853 30.5971H83.7736V17.9157H80.853L80.6753 19.2598Z" fill="#1D1D1F"/>
<path d="M173.632 17.9746L169.949 26.1923H169.619L165.555 17.9746H161.746L167.968 30.0982L165.327 35.7287H169.136L177.441 17.9746H173.632Z" fill="#1D1D1F"/>
<path d="M154.719 27.9419C152.612 27.9419 151.139 26.4201 151.139 24.3404C151.139 22.1845 152.612 20.6881 154.719 20.6881C156.853 20.6881 158.351 22.1845 158.351 24.3404C158.351 26.4201 156.853 27.9419 154.719 27.9419ZM154.719 17.6699C150.808 17.6699 147.913 20.6375 147.913 24.3657C147.913 28.018 150.808 30.9602 154.719 30.9602C158.707 30.9602 161.627 28.018 161.627 24.3657C161.627 20.6375 158.707 17.6699 154.719 17.6699Z" fill="#1D1D1F"/>
<path d="M134.376 24.4675C134.325 26.8516 133.563 27.5871 132.115 27.5871H131.887V30.6561C135.645 30.9097 137.448 29.0328 137.575 24.6705L137.677 20.8913H142.401V30.6561H145.575V17.9746H134.528L134.376 24.4675Z" fill="#1D1D1F"/>
<path d="M123.709 27.764V20.8652C125.919 20.8652 127.493 22.1842 127.493 24.3401C127.493 26.4198 125.919 27.764 123.709 27.764ZM120.535 27.764C118.325 27.764 116.751 26.4198 116.751 24.3401C116.751 22.1842 118.325 20.8652 120.535 20.8652V27.764ZM123.709 17.9233V12.9014H120.535V17.9233C116.547 17.9233 113.551 20.637 113.551 24.3401C113.551 28.0178 116.547 30.7061 120.535 30.7061V35.7787H123.709V30.7061C127.696 30.7061 130.693 28.0178 130.693 24.3401C130.693 20.637 127.696 17.9233 123.709 17.9233Z" fill="#1D1D1F"/>
<path d="M101.536 20.8913H105.472V30.656H108.647V20.8913H112.609V17.9746H101.536V20.8913Z" fill="#1D1D1F"/>
</svg>
