<svg width="92" height="92" viewBox="0 0 92 92" fill="none" xmlns="http://www.w3.org/2000/svg">
<path d="M0 44.16C0 23.368 0 12.972 6.44 6.44C12.88 0 23.276 0 44.16 0H47.84C68.632 0 79.028 0 85.56 6.44C92 12.88 92 23.276 92 44.16V47.84C92 68.632 92 79.028 85.56 85.56C79.12 92 68.724 92 47.84 92H44.16C23.368 92 12.972 92 6.44 85.56C0 79.12 0 68.724 0 47.84V44.16Z" fill="#0077FF"/>
<path d="M48.944 66.2398C27.968 66.2398 16.008 51.8878 15.548 27.9678H26.036C26.404 45.5398 34.132 52.9918 40.296 54.4638V27.9678H50.232V43.1478C56.304 42.5038 62.652 35.6038 64.768 27.9678H74.704C73.048 37.3518 66.148 44.2518 61.272 47.1038C66.148 49.4038 74.06 55.3838 77.004 66.3318H66.148C63.848 59.0638 57.96 53.4518 50.324 52.6238V66.2398H48.944Z" fill="white"/>
</svg>
